<mxfile host="app.diagrams.net" modified="2022-11-19T10:56:22.314Z" agent="5.0 (X11; Linux x86_64) AppleWebKit/537.36 (KHTML, like Gecko) Chrome/107.0.0.0 Safari/537.36" etag="-DFZTthSQ3d4QbZX6Jf-" version="20.5.3" type="github">
  <diagram id="C5RBs43oDa-KdzZeNtuy" name="Page-1">
    <mxGraphModel dx="1221" dy="693" grid="1" gridSize="10" guides="1" tooltips="1" connect="1" arrows="1" fold="1" page="1" pageScale="1" pageWidth="827" pageHeight="1169" math="0" shadow="0">
      <root>
        <mxCell id="WIyWlLk6GJQsqaUBKTNV-0" />
        <mxCell id="WIyWlLk6GJQsqaUBKTNV-1" parent="WIyWlLk6GJQsqaUBKTNV-0" />
        <mxCell id="wq8ueWy5LjM32qIR-IMn-22" value="" style="edgeStyle=orthogonalEdgeStyle;rounded=0;orthogonalLoop=1;jettySize=auto;html=1;" edge="1" parent="WIyWlLk6GJQsqaUBKTNV-1" source="WIyWlLk6GJQsqaUBKTNV-6" target="wq8ueWy5LjM32qIR-IMn-21">
          <mxGeometry relative="1" as="geometry">
            <Array as="points">
              <mxPoint x="219" y="270" />
              <mxPoint x="219" y="270" />
            </Array>
          </mxGeometry>
        </mxCell>
        <mxCell id="wq8ueWy5LjM32qIR-IMn-33" value="Yes" style="edgeLabel;html=1;align=center;verticalAlign=middle;resizable=0;points=[];fontSize=11;" vertex="1" connectable="0" parent="wq8ueWy5LjM32qIR-IMn-22">
          <mxGeometry x="-0.2978" y="1" relative="1" as="geometry">
            <mxPoint as="offset" />
          </mxGeometry>
        </mxCell>
        <mxCell id="wq8ueWy5LjM32qIR-IMn-24" value="" style="edgeStyle=orthogonalEdgeStyle;rounded=0;orthogonalLoop=1;jettySize=auto;html=1;" edge="1" parent="WIyWlLk6GJQsqaUBKTNV-1" source="WIyWlLk6GJQsqaUBKTNV-6" target="wq8ueWy5LjM32qIR-IMn-23">
          <mxGeometry relative="1" as="geometry" />
        </mxCell>
        <mxCell id="wq8ueWy5LjM32qIR-IMn-25" value="No" style="edgeLabel;html=1;align=center;verticalAlign=middle;resizable=0;points=[];" vertex="1" connectable="0" parent="wq8ueWy5LjM32qIR-IMn-24">
          <mxGeometry x="-0.1164" y="3" relative="1" as="geometry">
            <mxPoint as="offset" />
          </mxGeometry>
        </mxCell>
        <mxCell id="WIyWlLk6GJQsqaUBKTNV-6" value="First time?" style="rhombus;whiteSpace=wrap;html=1;shadow=0;fontFamily=Helvetica;fontSize=12;align=center;strokeWidth=1;spacing=6;spacingTop=-4;" parent="WIyWlLk6GJQsqaUBKTNV-1" vertex="1">
          <mxGeometry x="169" y="161" width="100" height="80" as="geometry" />
        </mxCell>
        <mxCell id="WIyWlLk6GJQsqaUBKTNV-11" value="Repair Lamp" style="rounded=1;whiteSpace=wrap;html=1;fontSize=12;glass=0;strokeWidth=1;shadow=0;" parent="WIyWlLk6GJQsqaUBKTNV-1" vertex="1">
          <mxGeometry x="370" y="665" width="120" height="40" as="geometry" />
        </mxCell>
        <mxCell id="WIyWlLk6GJQsqaUBKTNV-12" value="Replace Bulb" style="rounded=1;whiteSpace=wrap;html=1;fontSize=12;glass=0;strokeWidth=1;shadow=0;" parent="WIyWlLk6GJQsqaUBKTNV-1" vertex="1">
          <mxGeometry x="230" y="775" width="120" height="40" as="geometry" />
        </mxCell>
        <mxCell id="wq8ueWy5LjM32qIR-IMn-12" value="" style="edgeStyle=orthogonalEdgeStyle;rounded=0;orthogonalLoop=1;jettySize=auto;html=1;" edge="1" parent="WIyWlLk6GJQsqaUBKTNV-1" source="wq8ueWy5LjM32qIR-IMn-0" target="wq8ueWy5LjM32qIR-IMn-27">
          <mxGeometry relative="1" as="geometry">
            <mxPoint x="694.3" y="509" as="targetPoint" />
          </mxGeometry>
        </mxCell>
        <mxCell id="wq8ueWy5LjM32qIR-IMn-13" value="Yes" style="edgeLabel;html=1;align=center;verticalAlign=middle;resizable=0;points=[];" vertex="1" connectable="0" parent="wq8ueWy5LjM32qIR-IMn-12">
          <mxGeometry x="-0.2105" y="4" relative="1" as="geometry">
            <mxPoint x="15" y="9" as="offset" />
          </mxGeometry>
        </mxCell>
        <mxCell id="wq8ueWy5LjM32qIR-IMn-15" value="" style="edgeStyle=orthogonalEdgeStyle;rounded=0;orthogonalLoop=1;jettySize=auto;html=1;entryX=0;entryY=0.5;entryDx=0;entryDy=0;" edge="1" parent="WIyWlLk6GJQsqaUBKTNV-1" source="wq8ueWy5LjM32qIR-IMn-0" target="wq8ueWy5LjM32qIR-IMn-29">
          <mxGeometry relative="1" as="geometry">
            <mxPoint x="848" y="399" as="targetPoint" />
          </mxGeometry>
        </mxCell>
        <mxCell id="wq8ueWy5LjM32qIR-IMn-16" value="No" style="edgeLabel;html=1;align=center;verticalAlign=middle;resizable=0;points=[];" vertex="1" connectable="0" parent="wq8ueWy5LjM32qIR-IMn-15">
          <mxGeometry x="-0.1167" y="1" relative="1" as="geometry">
            <mxPoint x="-2" y="1" as="offset" />
          </mxGeometry>
        </mxCell>
        <mxCell id="wq8ueWy5LjM32qIR-IMn-0" value="Is &lt;br&gt;Organisation?" style="rhombus;whiteSpace=wrap;html=1;shadow=0;fontFamily=Helvetica;fontSize=12;align=center;strokeWidth=1;spacing=6;spacingTop=-4;" vertex="1" parent="WIyWlLk6GJQsqaUBKTNV-1">
          <mxGeometry x="639.25" y="354" width="110" height="90" as="geometry" />
        </mxCell>
        <mxCell id="wq8ueWy5LjM32qIR-IMn-17" value="&lt;h1&gt;&lt;font style=&quot;font-size: 15px;&quot;&gt;Back-end check&lt;/font&gt;&lt;/h1&gt;&lt;p&gt;This check is done in the back-end so that it returns the specific information based on this check&lt;/p&gt;" style="text;html=1;strokeColor=#666666;fillColor=#f5f5f5;spacing=5;spacingTop=-20;whiteSpace=wrap;overflow=hidden;rounded=0;fontColor=#333333;" vertex="1" parent="WIyWlLk6GJQsqaUBKTNV-1">
          <mxGeometry x="860" y="220" width="150" height="110" as="geometry" />
        </mxCell>
        <mxCell id="wq8ueWy5LjM32qIR-IMn-20" value="" style="edgeStyle=orthogonalEdgeStyle;rounded=0;orthogonalLoop=1;jettySize=auto;html=1;" edge="1" parent="WIyWlLk6GJQsqaUBKTNV-1" source="wq8ueWy5LjM32qIR-IMn-18" target="WIyWlLk6GJQsqaUBKTNV-6">
          <mxGeometry relative="1" as="geometry" />
        </mxCell>
        <mxCell id="wq8ueWy5LjM32qIR-IMn-18" value="Launch app" style="ellipse;whiteSpace=wrap;html=1;" vertex="1" parent="WIyWlLk6GJQsqaUBKTNV-1">
          <mxGeometry x="168" y="68" width="101" height="50" as="geometry" />
        </mxCell>
        <mxCell id="wq8ueWy5LjM32qIR-IMn-35" value="" style="edgeStyle=orthogonalEdgeStyle;rounded=0;orthogonalLoop=1;jettySize=auto;html=1;fontSize=11;entryX=0.5;entryY=0;entryDx=0;entryDy=0;" edge="1" parent="WIyWlLk6GJQsqaUBKTNV-1" source="wq8ueWy5LjM32qIR-IMn-21" target="wq8ueWy5LjM32qIR-IMn-36">
          <mxGeometry relative="1" as="geometry">
            <mxPoint x="234.5" y="410" as="targetPoint" />
          </mxGeometry>
        </mxCell>
        <mxCell id="wq8ueWy5LjM32qIR-IMn-21" value="Register" style="whiteSpace=wrap;html=1;shadow=0;strokeWidth=1;spacing=6;spacingTop=-4;" vertex="1" parent="WIyWlLk6GJQsqaUBKTNV-1">
          <mxGeometry x="159" y="280" width="120" height="60" as="geometry" />
        </mxCell>
        <mxCell id="wq8ueWy5LjM32qIR-IMn-26" style="edgeStyle=orthogonalEdgeStyle;rounded=0;orthogonalLoop=1;jettySize=auto;html=1;entryX=0.5;entryY=0;entryDx=0;entryDy=0;" edge="1" parent="WIyWlLk6GJQsqaUBKTNV-1" source="wq8ueWy5LjM32qIR-IMn-23" target="wq8ueWy5LjM32qIR-IMn-0">
          <mxGeometry relative="1" as="geometry">
            <Array as="points">
              <mxPoint x="694.25" y="290" />
              <mxPoint x="694.25" y="290" />
            </Array>
          </mxGeometry>
        </mxCell>
        <mxCell id="wq8ueWy5LjM32qIR-IMn-30" value="Yes" style="edgeLabel;html=1;align=center;verticalAlign=middle;resizable=0;points=[];fontSize=11;" vertex="1" connectable="0" parent="wq8ueWy5LjM32qIR-IMn-26">
          <mxGeometry x="-0.2" y="-3" relative="1" as="geometry">
            <mxPoint as="offset" />
          </mxGeometry>
        </mxCell>
        <mxCell id="wq8ueWy5LjM32qIR-IMn-23" value="Login" style="whiteSpace=wrap;html=1;shadow=0;strokeWidth=1;spacing=6;spacingTop=-4;" vertex="1" parent="WIyWlLk6GJQsqaUBKTNV-1">
          <mxGeometry x="634.25" y="171" width="120" height="60" as="geometry" />
        </mxCell>
        <mxCell id="wq8ueWy5LjM32qIR-IMn-27" value="&lt;span style=&quot;font-size: 12px;&quot;&gt;Discover Screen for Grads&lt;/span&gt;" style="shape=parallelogram;perimeter=parallelogramPerimeter;whiteSpace=wrap;html=1;fixedSize=1;fontSize=15;" vertex="1" parent="WIyWlLk6GJQsqaUBKTNV-1">
          <mxGeometry x="608" y="488" width="172.5" height="50" as="geometry" />
        </mxCell>
        <mxCell id="wq8ueWy5LjM32qIR-IMn-29" value="&lt;span style=&quot;font-size: 12px;&quot;&gt;Discover Screen for Organisation&lt;/span&gt;" style="shape=parallelogram;perimeter=parallelogramPerimeter;whiteSpace=wrap;html=1;fixedSize=1;fontSize=15;" vertex="1" parent="WIyWlLk6GJQsqaUBKTNV-1">
          <mxGeometry x="860" y="371.5" width="150" height="55" as="geometry" />
        </mxCell>
        <mxCell id="wq8ueWy5LjM32qIR-IMn-39" value="Yes" style="edgeStyle=orthogonalEdgeStyle;rounded=0;orthogonalLoop=1;jettySize=auto;html=1;fontSize=11;exitX=0.5;exitY=1;exitDx=0;exitDy=0;entryX=0.507;entryY=0.21;entryDx=0;entryDy=0;entryPerimeter=0;" edge="1" parent="WIyWlLk6GJQsqaUBKTNV-1" source="wq8ueWy5LjM32qIR-IMn-36" target="wq8ueWy5LjM32qIR-IMn-54">
          <mxGeometry x="-0.2064" y="11" relative="1" as="geometry">
            <mxPoint x="219.1034482758622" y="520.0000000000001" as="targetPoint" />
            <Array as="points">
              <mxPoint x="219" y="500" />
              <mxPoint x="220" y="500" />
            </Array>
            <mxPoint as="offset" />
          </mxGeometry>
        </mxCell>
        <mxCell id="wq8ueWy5LjM32qIR-IMn-41" value="No" style="edgeStyle=orthogonalEdgeStyle;rounded=0;orthogonalLoop=1;jettySize=auto;html=1;fontSize=11;endArrow=classic;endFill=1;entryX=0.012;entryY=0.712;entryDx=0;entryDy=0;exitX=1;exitY=0.5;exitDx=0;exitDy=0;entryPerimeter=0;" edge="1" parent="WIyWlLk6GJQsqaUBKTNV-1" source="wq8ueWy5LjM32qIR-IMn-36" target="wq8ueWy5LjM32qIR-IMn-53">
          <mxGeometry x="0.0411" y="-16" relative="1" as="geometry">
            <mxPoint x="283" y="414.25" as="sourcePoint" />
            <mxPoint x="413.5" y="413.75" as="targetPoint" />
            <Array as="points">
              <mxPoint x="285" y="414" />
            </Array>
            <mxPoint as="offset" />
          </mxGeometry>
        </mxCell>
        <mxCell id="wq8ueWy5LjM32qIR-IMn-36" value="Register as organisation&lt;br&gt;?" style="rhombus;whiteSpace=wrap;html=1;shadow=0;fontFamily=Helvetica;fontSize=12;align=center;strokeWidth=1;spacing=6;spacingTop=-4;" vertex="1" parent="WIyWlLk6GJQsqaUBKTNV-1">
          <mxGeometry x="159.25" y="364" width="119.75" height="100" as="geometry" />
        </mxCell>
        <mxCell id="wq8ueWy5LjM32qIR-IMn-45" value="" style="edgeStyle=orthogonalEdgeStyle;rounded=0;orthogonalLoop=1;jettySize=auto;html=1;fontSize=11;endArrow=classic;endFill=1;exitX=0.5;exitY=1;exitDx=0;exitDy=0;entryX=0.5;entryY=0;entryDx=0;entryDy=0;" edge="1" parent="WIyWlLk6GJQsqaUBKTNV-1" source="wq8ueWy5LjM32qIR-IMn-54" target="wq8ueWy5LjM32qIR-IMn-57">
          <mxGeometry relative="1" as="geometry">
            <mxPoint x="217" y="580.0000000000001" as="sourcePoint" />
            <mxPoint x="218.5" y="590" as="targetPoint" />
          </mxGeometry>
        </mxCell>
        <mxCell id="wq8ueWy5LjM32qIR-IMn-51" value="" style="edgeStyle=orthogonalEdgeStyle;rounded=0;orthogonalLoop=1;jettySize=auto;html=1;fontSize=11;endArrow=classic;endFill=1;exitX=0.5;exitY=1;exitDx=0;exitDy=0;" edge="1" parent="WIyWlLk6GJQsqaUBKTNV-1" source="wq8ueWy5LjM32qIR-IMn-53" target="wq8ueWy5LjM32qIR-IMn-50">
          <mxGeometry relative="1" as="geometry">
            <mxPoint x="455" y="450" as="sourcePoint" />
            <Array as="points">
              <mxPoint x="443" y="470" />
              <mxPoint x="443" y="470" />
            </Array>
          </mxGeometry>
        </mxCell>
        <mxCell id="wq8ueWy5LjM32qIR-IMn-50" value="Select NPO&#39;s &lt;br&gt;suiting &lt;br&gt;your preference" style="shape=parallelogram;perimeter=parallelogramPerimeter;whiteSpace=wrap;html=1;fixedSize=1;fontSize=11;" vertex="1" parent="WIyWlLk6GJQsqaUBKTNV-1">
          <mxGeometry x="378.5" y="491" width="128" height="60" as="geometry" />
        </mxCell>
        <mxCell id="wq8ueWy5LjM32qIR-IMn-53" value="Enter&lt;br&gt;Graduate&#39;s&lt;br&gt;Information" style="html=1;strokeWidth=2;shape=manualInput;whiteSpace=wrap;rounded=1;size=26;arcSize=11;fontSize=11;" vertex="1" parent="WIyWlLk6GJQsqaUBKTNV-1">
          <mxGeometry x="395" y="364" width="95" height="70" as="geometry" />
        </mxCell>
        <mxCell id="wq8ueWy5LjM32qIR-IMn-54" value="Enter&lt;br&gt;Organisation&#39;s&lt;br&gt;Information" style="html=1;strokeWidth=2;shape=manualInput;whiteSpace=wrap;rounded=1;size=26;arcSize=11;fontSize=11;" vertex="1" parent="WIyWlLk6GJQsqaUBKTNV-1">
          <mxGeometry x="163.06" y="486" width="110.87" height="70" as="geometry" />
        </mxCell>
        <mxCell id="wq8ueWy5LjM32qIR-IMn-55" style="edgeStyle=orthogonalEdgeStyle;rounded=0;orthogonalLoop=1;jettySize=auto;html=1;entryX=0;entryY=0.5;entryDx=0;entryDy=0;dashed=1;endArrow=none;endFill=0;" edge="1" parent="WIyWlLk6GJQsqaUBKTNV-1" source="wq8ueWy5LjM32qIR-IMn-0" target="wq8ueWy5LjM32qIR-IMn-17">
          <mxGeometry relative="1" as="geometry">
            <mxPoint x="700" y="296" as="sourcePoint" />
            <mxPoint x="735.25" y="364" as="targetPoint" />
            <Array as="points">
              <mxPoint x="735" y="275" />
            </Array>
          </mxGeometry>
        </mxCell>
        <mxCell id="wq8ueWy5LjM32qIR-IMn-57" value="Select skills &lt;br&gt;required from a list of &lt;br&gt;existing skill set" style="shape=parallelogram;perimeter=parallelogramPerimeter;whiteSpace=wrap;html=1;fixedSize=1;fontSize=11;" vertex="1" parent="WIyWlLk6GJQsqaUBKTNV-1">
          <mxGeometry x="142.07" y="605" width="152.85" height="60" as="geometry" />
        </mxCell>
      </root>
    </mxGraphModel>
  </diagram>
</mxfile>
